<svg
            xmlns="http://www.w3.org/2000/svg"
            viewBox="0 0 40 29"
            fill="currentColor"
          >
            <path
              id="Path_1"
              data-name="Path 1"
              d="M715.466,326.22a6.874,6.874,0,0,0-5.513-2.184,6.614,6.614,0,0,0-5.37,2.163V315.264H677.344v5.358h9.227v23.642H692.3V320.622h6.913v23.642h5.372V332.689a4.239,4.239,0,0,1,1.07-2.764,3.922,3.922,0,0,1,5.411,0,4.27,4.27,0,0,1,.909,2.844v11.5h5.372V331.846A8.321,8.321,0,0,0,715.466,326.22Z"
              transform="translate(-677.344 -315.264)"
            ></path>
          </svg>